# xmcd
#
# Track frame offsets: 
#        150
#        16204
#        37536
#        52579
#        66329
#        84334
#        95394
#
# Disc length: 1392 seconds
#
# Revision: 0
# Processed by: cddbd v1.5.2PL0 Copyright (c) Steve Scherf et al.
# Submitted via: ExactAudioCopyFreeDBPlugin 1.0
#
DISCID=3f056e07
DTITLE=Free Range Reveleers, The - Hush
DYEAR=2015
DGENRE=Blues
TTITLE0=Good Night, Irene
TTITLE1=Doomsdayist's Lullaby
TTITLE2=Good Night, Sun Dreams
TTITLE3=Tomorrow (Ani's Song)
TTITLE4=Hobo's Lullaby
TTITLE5=All the Pretty Little Horses
TTITLE6=Go To Sleepy Little Baby
EXTD=
EXTT0=
EXTT1=
EXTT2=
EXTT3=
EXTT4=
EXTT5=
EXTT6=
PLAYORDER=
